<svg id="Capa_1" data-name="Capa 1" xmlns="http://www.w3.org/2000/svg" viewBox="0 0 34.77 34.67"><defs><style>.cls-1{fill:#040006;}</style></defs><title>goma</title><path class="cls-1" d="M130.61,434.23H110.3l19.78-19.78a3.33,3.33,0,0,0,0-4.71l-8.24-8.24a3.42,3.42,0,0,0-4.72,0l-19.8,19.8a3.33,3.33,0,0,0,0,4.71l8.24,8.25a3.35,3.35,0,0,0,2.36,1l.17,0,.08,0h22.44a.51.51,0,0,0,.51-.5A.5.5,0,0,0,130.61,434.23ZM98,425.31A2.35,2.35,0,0,1,98,422l9.9-9.9,11.54,11.55-9.9,9.9a2.39,2.39,0,0,1-3.3,0Z" transform="translate(-96.34 -400.55)"/></svg>